<svg width="20" height="20" viewBox="0 0 20 20" fill="none" xmlns="http://www.w3.org/2000/svg">
<path fill-rule="evenodd" clip-rule="evenodd" d="M10 16.6667C13.6819 16.6667 16.6667 13.6819 16.6667 10C16.6667 6.3181 13.6819 3.33333 10 3.33333C6.3181 3.33333 3.33333 6.3181 3.33333 10C3.33333 13.6819 6.3181 16.6667 10 16.6667ZM10 18C14.4183 18 18 14.4183 18 10C18 5.58172 14.4183 2 10 2C5.58172 2 2 5.58172 2 10C2 14.4183 5.58172 18 10 18Z" fill="#999999"/>
<path d="M10.9688 9.16384L9.48438 9.16384C9.48438 11.7759 9.50295 11.388 9.51855 14L11 14L10.9688 9.16384ZM11 6.19995L9.45313 6.19995L9.45313 7.68189L11 7.68189L11 6.19995Z" fill="#999999"/>
</svg>