<svg width="96" height="16" viewBox="0 0 96 16" fill="none" xmlns="http://www.w3.org/2000/svg">
<path d="M6.71934 3.21378C7.10242 1.88952 7.29396 1.22739 7.58922 1.06003C7.84413 0.915537 8.15619 0.915537 8.4111 1.06003C8.70636 1.22739 8.8979 1.88952 9.28098 3.21378L9.78108 4.94256C9.88412 5.29874 9.93564 5.47683 10.0407 5.60721C10.1333 5.72225 10.2549 5.81059 10.393 5.86318C10.5494 5.92278 10.7347 5.91674 11.1053 5.90467L12.904 5.84607C14.2818 5.80118 14.9708 5.77874 15.2212 6.00783C15.4374 6.20561 15.5338 6.5024 15.4751 6.78948C15.4072 7.12201 14.8367 7.50878 13.6956 8.28233L12.206 9.29218C11.8991 9.50024 11.7456 9.60427 11.6541 9.74445C11.5733 9.86814 11.5269 10.0111 11.5195 10.1586C11.5112 10.3258 11.5742 10.5002 11.7002 10.8489L12.3117 12.5415C12.7802 13.838 13.0144 14.4862 12.8739 14.7952C12.7526 15.0619 12.5002 15.2453 12.209 15.2783C11.8718 15.3164 11.3276 14.8933 10.2393 14.0472L8.81858 12.9425C8.52586 12.7149 8.3795 12.6011 8.2179 12.5574C8.07531 12.5188 7.92502 12.5188 7.78242 12.5574C7.62082 12.6011 7.47446 12.7149 7.18174 12.9425L5.761 14.0472C4.6727 14.8933 4.12855 15.3164 3.79131 15.2783C3.50015 15.2453 3.24769 15.0619 3.1264 14.7952C2.9859 14.4862 3.22013 13.838 3.68859 12.5415L4.30015 10.8489C4.42615 10.5002 4.48915 10.3258 4.48082 10.1586C4.47346 10.0111 4.42702 9.86814 4.34625 9.74445C4.25471 9.60427 4.10125 9.50024 3.79434 9.29218L2.30471 8.28233C1.16365 7.50878 0.593116 7.12201 0.525183 6.78948C0.466533 6.5024 0.562966 6.20561 0.779158 6.00783C1.02957 5.77874 1.71848 5.80118 3.0963 5.84607L4.89501 5.90467C5.2656 5.91674 5.4509 5.92278 5.60735 5.86318C5.7454 5.81059 5.86698 5.72225 5.95966 5.60721C6.06468 5.47683 6.1162 5.29874 6.21924 4.94256L6.71934 3.21378Z" fill="#FFE810"/>
<path d="M26.7193 3.21378C27.1024 1.88952 27.294 1.22739 27.5892 1.06003C27.8441 0.915537 28.1562 0.915537 28.4111 1.06003C28.7064 1.22739 28.8979 1.88952 29.281 3.21378L29.7811 4.94256C29.8841 5.29874 29.9356 5.47683 30.0407 5.60721C30.1333 5.72225 30.2549 5.81059 30.393 5.86318C30.5494 5.92278 30.7347 5.91674 31.1053 5.90467L32.904 5.84607C34.2818 5.80118 34.9708 5.77874 35.2212 6.00783C35.4374 6.20561 35.5338 6.5024 35.4751 6.78948C35.4072 7.12201 34.8367 7.50878 33.6956 8.28233L32.206 9.29218C31.8991 9.50024 31.7456 9.60427 31.6541 9.74445C31.5733 9.86814 31.5269 10.0111 31.5195 10.1586C31.5112 10.3258 31.5742 10.5002 31.7002 10.8489L32.3117 12.5415C32.7802 13.838 33.0144 14.4862 32.8739 14.7952C32.7526 15.0619 32.5002 15.2453 32.209 15.2783C31.8718 15.3164 31.3276 14.8933 30.2393 14.0472L28.8186 12.9425C28.5259 12.7149 28.3795 12.6011 28.2179 12.5574C28.0753 12.5188 27.925 12.5188 27.7824 12.5574C27.6208 12.6011 27.4745 12.7149 27.1817 12.9425L25.761 14.0472C24.6727 14.8933 24.1286 15.3164 23.7913 15.2783C23.5002 15.2453 23.2477 15.0619 23.1264 14.7952C22.9859 14.4862 23.2201 13.838 23.6886 12.5415L24.3002 10.8489C24.4262 10.5002 24.4892 10.3258 24.4808 10.1586C24.4735 10.0111 24.427 9.86814 24.3462 9.74445C24.2547 9.60427 24.1012 9.50024 23.7943 9.29218L22.3047 8.28233C21.1636 7.50878 20.5931 7.12201 20.5252 6.78948C20.4665 6.5024 20.563 6.20561 20.7792 6.00783C21.0296 5.77874 21.7185 5.80118 23.0963 5.84607L24.895 5.90467C25.2656 5.91674 25.4509 5.92278 25.6073 5.86318C25.7454 5.81059 25.867 5.72225 25.9597 5.60721C26.0647 5.47683 26.1162 5.29874 26.2192 4.94256L26.7193 3.21378Z" fill="#FFE810"/>
<path d="M46.7193 3.21378C47.1024 1.88952 47.294 1.22739 47.5892 1.06003C47.8441 0.915537 48.1562 0.915537 48.4111 1.06003C48.7064 1.22739 48.8979 1.88952 49.281 3.21378L49.7811 4.94256C49.8841 5.29874 49.9356 5.47683 50.0407 5.60721C50.1333 5.72225 50.2549 5.81059 50.393 5.86318C50.5494 5.92278 50.7347 5.91674 51.1053 5.90467L52.904 5.84607C54.2818 5.80118 54.9708 5.77874 55.2212 6.00783C55.4374 6.20561 55.5338 6.5024 55.4751 6.78948C55.4072 7.12201 54.8367 7.50878 53.6956 8.28233L52.206 9.29218C51.8991 9.50024 51.7456 9.60427 51.6541 9.74445C51.5733 9.86814 51.5269 10.0111 51.5195 10.1586C51.5112 10.3258 51.5742 10.5002 51.7002 10.8489L52.3117 12.5415C52.7802 13.838 53.0144 14.4862 52.8739 14.7952C52.7526 15.0619 52.5002 15.2453 52.209 15.2783C51.8718 15.3164 51.3276 14.8933 50.2393 14.0472L48.8186 12.9425C48.5259 12.7149 48.3795 12.6011 48.2179 12.5574C48.0753 12.5188 47.925 12.5188 47.7824 12.5574C47.6208 12.6011 47.4745 12.7149 47.1817 12.9425L45.761 14.0472C44.6727 14.8933 44.1286 15.3164 43.7913 15.2783C43.5002 15.2453 43.2477 15.0619 43.1264 14.7952C42.9859 14.4862 43.2201 13.838 43.6886 12.5415L44.3002 10.8489C44.4262 10.5002 44.4892 10.3258 44.4808 10.1586C44.4735 10.0111 44.427 9.86814 44.3462 9.74445C44.2547 9.60427 44.1012 9.50024 43.7943 9.29218L42.3047 8.28233C41.1636 7.50878 40.5931 7.12201 40.5252 6.78948C40.4665 6.5024 40.563 6.20561 40.7792 6.00783C41.0296 5.77874 41.7185 5.80118 43.0963 5.84607L44.895 5.90467C45.2656 5.91674 45.4509 5.92278 45.6073 5.86318C45.7454 5.81059 45.867 5.72225 45.9597 5.60721C46.0647 5.47683 46.1162 5.29874 46.2192 4.94256L46.7193 3.21378Z" fill="#FFE810"/>
<path d="M66.7193 3.21378C67.1024 1.88952 67.294 1.22739 67.5892 1.06003C67.8441 0.915537 68.1562 0.915537 68.4111 1.06003C68.7064 1.22739 68.8979 1.88952 69.281 3.21378L69.7811 4.94256C69.8841 5.29874 69.9356 5.47683 70.0407 5.60721C70.1333 5.72225 70.2549 5.81059 70.393 5.86318C70.5494 5.92278 70.7347 5.91674 71.1053 5.90467L72.904 5.84607C74.2818 5.80118 74.9708 5.77874 75.2212 6.00783C75.4374 6.20561 75.5338 6.5024 75.4751 6.78948C75.4072 7.12201 74.8367 7.50878 73.6956 8.28233L72.206 9.29218C71.8991 9.50024 71.7456 9.60427 71.6541 9.74445C71.5733 9.86814 71.5269 10.0111 71.5195 10.1586C71.5112 10.3258 71.5742 10.5002 71.7002 10.8489L72.3117 12.5415C72.7802 13.838 73.0144 14.4862 72.8739 14.7952C72.7526 15.0619 72.5002 15.2453 72.209 15.2783C71.8718 15.3164 71.3276 14.8933 70.2393 14.0472L68.8186 12.9425C68.5259 12.7149 68.3795 12.6011 68.2179 12.5574C68.0753 12.5188 67.925 12.5188 67.7824 12.5574C67.6208 12.6011 67.4745 12.7149 67.1817 12.9425L65.761 14.0472C64.6727 14.8933 64.1286 15.3164 63.7913 15.2783C63.5002 15.2453 63.2477 15.0619 63.1264 14.7952C62.9859 14.4862 63.2201 13.838 63.6886 12.5415L64.3002 10.8489C64.4262 10.5002 64.4892 10.3258 64.4808 10.1586C64.4735 10.0111 64.427 9.86814 64.3462 9.74445C64.2547 9.60427 64.1012 9.50024 63.7943 9.29218L62.3047 8.28233C61.1636 7.50878 60.5931 7.12201 60.5252 6.78948C60.4665 6.5024 60.563 6.20561 60.7792 6.00783C61.0296 5.77874 61.7185 5.80118 63.0963 5.84607L64.895 5.90467C65.2656 5.91674 65.4509 5.92278 65.6073 5.86318C65.7454 5.81059 65.867 5.72225 65.9597 5.60721C66.0647 5.47683 66.1162 5.29874 66.2192 4.94256L66.7193 3.21378Z" fill="#FFE810"/>
<path d="M86.7193 3.21378C87.1024 1.88952 87.294 1.22739 87.5892 1.06003C87.8441 0.915537 88.1562 0.915537 88.4111 1.06003C88.7064 1.22739 88.8979 1.88952 89.281 3.21378L89.7811 4.94256C89.8841 5.29874 89.9356 5.47683 90.0407 5.60721C90.1333 5.72225 90.2549 5.81059 90.393 5.86318C90.5494 5.92278 90.7347 5.91674 91.1053 5.90467L92.904 5.84607C94.2818 5.80118 94.9708 5.77874 95.2212 6.00783C95.4374 6.20561 95.5338 6.5024 95.4751 6.78948C95.4072 7.12201 94.8367 7.50878 93.6956 8.28233L92.206 9.29218C91.8991 9.50024 91.7456 9.60427 91.6541 9.74445C91.5733 9.86814 91.5269 10.0111 91.5195 10.1586C91.5112 10.3258 91.5742 10.5002 91.7002 10.8489L92.3117 12.5415C92.7802 13.838 93.0144 14.4862 92.8739 14.7952C92.7526 15.0619 92.5002 15.2453 92.209 15.2783C91.8718 15.3164 91.3276 14.8933 90.2393 14.0472L88.8186 12.9425C88.5259 12.7149 88.3795 12.6011 88.2179 12.5574C88.0753 12.5188 87.925 12.5188 87.7824 12.5574C87.6208 12.6011 87.4745 12.7149 87.1817 12.9425L85.761 14.0472C84.6727 14.8933 84.1286 15.3164 83.7913 15.2783C83.5002 15.2453 83.2477 15.0619 83.1264 14.7952C82.9859 14.4862 83.2201 13.838 83.6886 12.5415L84.3002 10.8489C84.4262 10.5002 84.4892 10.3258 84.4808 10.1586C84.4735 10.0111 84.427 9.86814 84.3462 9.74445C84.2547 9.60427 84.1012 9.50024 83.7943 9.29218L82.3047 8.28233C81.1636 7.50878 80.5931 7.12201 80.5252 6.78948C80.4665 6.5024 80.563 6.20561 80.7792 6.00783C81.0296 5.77874 81.7185 5.80118 83.0963 5.84607L84.895 5.90467C85.2656 5.91674 85.4509 5.92278 85.6073 5.86318C85.7454 5.81059 85.867 5.72225 85.9597 5.60721C86.0647 5.47683 86.1162 5.29874 86.2192 4.94256L86.7193 3.21378Z" fill="url(#paint0_linear_0_1)"/>
<defs>
<linearGradient id="paint0_linear_0_1" x1="95.5002" y1="8.78613" x2="79.6668" y2="8.78613" gradientUnits="userSpaceOnUse">
<stop offset="0.458564" stop-color="#CCCCCC"/>
<stop offset="0.458664" stop-color="#FFEB2D"/>
</linearGradient>
</defs>
</svg>
