<svg width="157" height="30" viewBox="0 0 157 30" fill="none" xmlns="http://www.w3.org/2000/svg">
<path d="M70.8108 15.1098C70.8108 21.0013 67.2171 23.7865 62.7192 23.7865H59.9703V20.2514H62.505C65.2181 20.2514 67.0265 18.7876 67.0265 15.1098C67.0265 11.4675 65.3162 9.64617 62.4245 9.64617C59.64 9.64617 57.6498 11.3604 57.6498 15.0383V29.8214H53.9014V6.57523H57.6498V8.57514H58.1853C59.4348 6.89689 61.2821 6.14674 63.2099 6.14674C67.351 6.14674 70.8108 9.14623 70.8108 15.1098ZM46.1757 13.574L43.6767 13.324C41.7132 13.1455 40.6779 12.6099 40.6779 11.4672C40.6779 10.1103 41.9989 9.32479 43.8909 9.32479C45.8544 9.32479 47.1038 10.2532 47.2109 11.5743H50.8165C50.6738 8.21785 48.0678 6.14674 43.9267 6.14674C39.7498 6.14674 36.9295 8.36067 36.9295 11.6101C36.9295 14.3239 38.6431 16.0736 42.5344 16.4664L45.0689 16.7163C46.6041 16.8591 47.6394 17.1805 47.6394 18.6445C47.6394 19.9658 46.6754 20.9298 44.1409 20.9298C41.8068 20.9298 40.6567 19.8704 40.2532 18.4504H36.3524C36.7411 21.6964 39.4672 24.215 44.1409 24.215C48.5319 24.215 51.3877 21.8939 51.3877 18.4661C51.3877 15.4308 49.3886 13.8954 46.1757 13.574ZM85.3284 18.4504C84.7403 19.8013 83.3352 20.8228 81.3414 20.8228C78.5926 20.8228 76.5578 19.0374 76.5578 15.1809C76.5578 11.503 78.4497 9.46761 81.377 9.46761C83.9832 9.46761 85.4825 11.0388 85.6254 13.3955H78.8781V16.1095H89.3024V14.3239C89.3024 9.36048 86.018 6.14674 81.3414 6.14674C76.9862 6.14674 72.8092 9.11055 72.8092 15.1809C72.8092 21.2512 76.9862 24.215 81.3414 24.215C85.325 24.215 88.1656 21.7606 89.0481 18.4504H85.3284ZM26.2377 6.14674C22.1324 6.14674 19.0622 8.2895 18.7052 11.5743H22.7391C23.0248 10.3606 24.1314 9.46788 26.2377 9.46788C28.951 9.46788 29.8434 10.8964 29.8434 12.6459V18.5374C28.3084 20.2874 26.5234 21.1084 24.7383 21.1084C22.882 21.1084 21.5969 20.2157 21.5969 18.6092C21.5969 17.0733 22.5964 16.1095 24.5242 16.1095H27.5229V13.3955H24.4171C20.1331 13.3955 17.7414 15.5383 17.7414 18.8231C17.7414 21.8939 20.0617 24.215 23.8816 24.215C26.0235 24.215 27.9156 23.3583 29.3079 22.3224H29.8434V23.7865H33.5918V12.2885C33.5918 8.03929 30.7002 6.14674 26.2377 6.14674ZM0.804688 23.7865H4.55314V0.219238H0.804688V23.7865ZM16.548 6.57523H11.9786L6.51659 13.7528V16.0024L12.1213 23.7865H16.7622L10.1936 14.8595L16.548 6.57523ZM152.054 6.57523L148.984 13.3955C148.234 15.0383 147.521 16.6448 147.306 17.7164H146.77C146.556 16.6448 145.807 15.0738 145.057 13.4314L141.987 6.57523H137.846L145.057 22.0368L141.487 29.8214H145.486L156.195 6.57523H152.054ZM137.017 6.57523H132.447L126.985 13.7528V16.0024L132.59 23.7865H137.231L130.662 14.8595L137.017 6.57523ZM113.548 13.574L111.049 13.324C109.085 13.1455 108.05 12.6099 108.05 11.4672C108.05 10.1103 109.371 9.32479 111.263 9.32479C113.226 9.32479 114.476 10.2532 114.583 11.5743H118.188C118.046 8.21785 115.44 6.14674 111.299 6.14674C107.122 6.14674 104.302 8.36067 104.302 11.6101C104.302 14.3239 106.015 16.0736 109.906 16.4664L112.441 16.7163C113.976 16.8591 115.011 17.1805 115.011 18.6445C115.011 19.9658 114.047 20.9298 111.513 20.9298C109.179 20.9298 108.029 19.8704 107.625 18.4504H103.724C104.113 21.6964 106.839 24.215 111.513 24.215C115.904 24.215 118.76 21.8939 118.76 18.4661C118.76 15.4308 116.761 13.8954 113.548 13.574ZM121.273 23.7865H125.022V0.219238H121.273V23.7865ZM96.5552 8.57514H96.0197V6.57523H92.2713V23.7865H96.0197V14.7881C96.0197 11.7172 97.4383 9.93179 100.232 9.93179H102.605V6.14674H101.232C98.6394 6.14674 97.5376 7.12472 96.5552 8.57514Z" fill="#00A88E"/>
</svg>
