<svg width="70" height="71" viewBox="0 0 70 71" fill="none" xmlns="http://www.w3.org/2000/svg">
<path d="M4.375 22.5229V49.1557C4.375 51.7478 5.76406 54.1322 8.00625 55.4229L31.4234 68.7994C33.6437 70.0682 36.3563 70.0682 38.5766 68.7994L61.9938 55.4229C64.2359 54.1432 65.625 51.7478 65.625 49.1557V22.5229C65.625 19.9307 64.2359 17.5463 61.9938 16.2666L38.5766 2.89004C36.3563 1.62129 33.6437 1.62129 31.4234 2.89004L8.00625 16.2666C5.76406 17.5463 4.375 19.9416 4.375 22.5229Z" fill="#00A88E"/>
<path d="M50.3125 18.3447H19.6875V19.4385H50.3125V18.3447Z" fill="#4D4D4F"/>
<path d="M40.4688 42.4072C40.4688 41.2041 38.0625 40.2197 35 40.2197C31.9375 40.2197 29.5312 41.2041 29.5312 42.4072C29.5312 43.6104 31.9375 44.5947 35 44.5947C38.0625 44.5947 40.4688 43.6104 40.4688 42.4072Z" fill="#4D4D4F"/>
<path d="M50.3125 19.4385H19.6875V42.4072H50.3125V19.4385Z" fill="#6D6E71"/>
<path d="M48.125 21.626H21.875V40.2197H48.125V21.626Z" fill="#44ADE2"/>
<path d="M50.3125 52.251H37.1875V53.3447H50.3125V52.251Z" fill="#6D6E71"/>
<path d="M50.3125 46.7822H37.1875V52.251H50.3125V46.7822Z" fill="#4D4D4F"/>
<path d="M49.2188 47.876H38.2812V51.1572H49.2188V47.876Z" fill="#A5CF4C"/>
<path d="M35 24.3604L30.0781 27.0947V32.5635C30.0781 35.9541 35 37.5947 35 37.5947C35 37.5947 39.9219 35.9541 39.9219 32.5635V27.0947L35 24.3604ZM38.8281 32.5635C38.8281 34.6416 35.9844 35.9541 35 36.3916C34.0156 35.9541 31.1719 34.6416 31.1719 32.5635V27.751L35 25.5635L38.8281 27.751V32.5635Z" fill="white"/>
<path d="M35 34.751H19.6875V53.3447H35V34.751Z" fill="#6D6E71"/>
<path d="M35 33.6572H19.6875V34.751H35V33.6572Z" fill="#4D4D4F"/>
<path d="M33.9062 35.8447H20.7812V51.1572H33.9062V35.8447Z" fill="#F04E45"/>
<path d="M27.3438 39.126L24.0625 40.9854V44.5947C24.0625 46.8916 27.3438 47.9853 27.3438 47.9853C27.3438 47.9853 30.625 46.8916 30.625 44.5947V40.9854L27.3438 39.126ZM29.5312 44.5947C29.5312 45.5791 28.1094 46.4541 27.3438 46.7822C26.5781 46.4541 25.1562 45.5791 25.1562 44.5947V41.6416L27.3438 40.4385L29.5312 41.6416V44.5947Z" fill="white"/>
</svg>
