<svg width="70" height="70" viewBox="0 0 70 70" fill="none" xmlns="http://www.w3.org/2000/svg">
<path d="M4.375 21.6781V48.3109C4.375 50.9031 5.76406 53.2875 8.00625 54.5781L31.4234 67.9547C33.6437 69.2234 36.3563 69.2234 38.5766 67.9547L61.9938 54.5781C64.2359 53.2984 65.625 50.9031 65.625 48.3109V21.6781C65.625 19.0859 64.2359 16.7016 61.9938 15.4219L38.5766 2.04531C36.3563 0.776563 33.6437 0.776563 31.4234 2.04531L8.00625 15.4219C5.76406 16.7016 4.375 19.0969 4.375 21.6781Z" fill="#00A88E"/>
<path fill-rule="evenodd" clip-rule="evenodd" d="M19.6875 41.5026C19.6875 50.414 31.5921 55.5518 35 56.875V15.3125L19.6875 23.863V40.874" fill="#B455A0"/>
<path fill-rule="evenodd" clip-rule="evenodd" d="M18.5937 22.9688L34.9989 13.125V12.0312L18.5938 21.5622L18.5937 22.9688Z" fill="#008E77"/>
<path fill-rule="evenodd" clip-rule="evenodd" d="M20.7812 24.0767L34.9989 15.8637V13.125L18.5938 22.6548V40.3386C18.5948 52.0603 34.9562 57.6603 34.9989 57.6756V55.3022C31.8347 54.0312 20.7812 48.9759 20.7812 40.4163V24.0767Z" fill="white"/>
<path fill-rule="evenodd" clip-rule="evenodd" d="M35 15.3125V56.875C38.4076 55.5518 50.3125 50.414 50.3125 41.5026V23.7844L35 15.3125Z" fill="#A23293"/>
<path fill-rule="evenodd" clip-rule="evenodd" d="M51.4062 22.9688L35 13.125V12.0312L51.4062 21.5622V22.9688Z" fill="#008E77"/>
<path fill-rule="evenodd" clip-rule="evenodd" d="M49.2188 24.0013L35 15.8637V13.125L51.4062 22.6548V40.3386C51.4052 52.0603 35.0427 57.6603 35 57.6756V55.3022C38.1642 54.0312 49.2188 48.9759 49.2188 40.3397V24.0013Z" fill="#E5E6E3"/>
<path fill-rule="evenodd" clip-rule="evenodd" d="M42.5933 31.8782C43.5186 31.3773 44.1541 30.4115 44.1541 29.286C44.1541 27.6509 42.8241 26.3252 41.1835 26.3252C40.5239 26.3252 39.9191 26.5484 39.4258 26.9115C38.3627 25.8626 36.7297 25.1855 35.0585 25.1571C32.3788 25.1101 30.1278 27.0132 29.628 29.5452L29.5339 29.5387C26.5546 29.4971 24.1046 31.8716 24.063 34.8412C24.0214 37.814 26.548 40.4674 29.7407 40.4674L41.143 40.4685H41.5039C43.9321 40.4685 45.9019 38.5785 45.9369 36.1723C45.9653 34.0985 44.5347 32.3441 42.5933 31.8782Z" fill="#6A1F5B"/>
<path fill-rule="evenodd" clip-rule="evenodd" d="M42.5933 32.9719C43.5186 32.471 44.1541 31.5052 44.1541 30.3809C44.1541 28.7446 42.8241 27.419 41.1835 27.419C40.5239 27.419 39.9191 27.6421 39.4258 28.0052C38.3627 26.9563 36.7297 26.2793 35.0585 26.2509C32.3788 26.2038 30.1278 28.1069 29.628 30.639L29.5339 30.6324C26.5546 30.5909 24.1046 32.9665 24.063 35.936C24.0214 38.9077 26.548 41.5623 29.7407 41.5623H41.5039C43.9321 41.5623 45.9019 39.6734 45.9369 37.2671C45.9653 35.1923 44.5347 33.439 42.5933 32.9719Z" fill="white"/>
<path fill-rule="evenodd" clip-rule="evenodd" d="M28.4375 35.2045L30.0431 33.5989L32.7841 36.3398L40.6864 28.4375L42.2909 30.0442L32.7852 39.5511L28.4375 35.2045Z" fill="#A23293"/>
</svg>
