<svg width="71" height="71" viewBox="0 0 71 71" fill="none" xmlns="http://www.w3.org/2000/svg">
<path d="M4.39502 21.7763V48.5299C4.39502 51.1338 5.79038 53.529 8.04273 54.8255L31.5661 68.2627C33.7965 69.5372 36.5213 69.5372 38.7516 68.2627L62.275 54.8255C64.5273 53.54 65.9227 51.1338 65.9227 48.5299V21.7763C65.9227 19.1724 64.5273 16.7772 62.275 15.4917L38.7516 2.05451C36.5213 0.780007 33.7965 0.780007 31.5661 2.05451L8.04273 15.4917C5.79038 16.7772 4.39502 19.1834 4.39502 21.7763Z" fill="#00A88E"/>
<path d="M50.5407 17.5791H19.7769V18.6778H50.5407V17.5791Z" fill="#4D4D4F"/>
<path d="M40.6521 41.7511C40.6521 40.5425 38.235 39.5537 35.1586 39.5537C32.0822 39.5537 29.665 40.5425 29.665 41.7511C29.665 42.9597 32.0822 43.9485 35.1586 43.9485C38.235 43.9485 40.6521 42.9597 40.6521 41.7511Z" fill="#4D4D4F"/>
<path d="M50.5407 18.6782H19.7769V41.7511H50.5407V18.6782Z" fill="#6D6E71"/>
<path d="M48.3431 20.8755H21.9741V39.5535H48.3431V20.8755Z" fill="#44ADE2"/>
<path d="M50.5405 51.6392H37.356V52.7379H50.5405V51.6392Z" fill="#6D6E71"/>
<path d="M50.5405 46.146H37.356V51.6395H50.5405V46.146Z" fill="#4D4D4F"/>
<path d="M49.4422 47.2446H38.4551V50.5408H49.4422V47.2446Z" fill="#A5CF4C"/>
<path d="M35.1585 23.6221L30.2144 26.3688V31.8624C30.2144 35.2684 35.1585 36.9164 35.1585 36.9164C35.1585 36.9164 40.1027 35.2684 40.1027 31.8624V26.3688L35.1585 23.6221ZM39.004 31.8624C39.004 33.9499 36.1474 35.2684 35.1585 35.7079C34.1697 35.2684 31.3131 33.9499 31.3131 31.8624V27.0281L35.1585 24.8307L39.004 27.0281V31.8624Z" fill="white"/>
<path d="M35.1588 34.0601H19.7769V52.7381H35.1588V34.0601Z" fill="#6D6E71"/>
<path d="M35.1588 32.9614H19.7769V34.0601H35.1588V32.9614Z" fill="#4D4D4F"/>
<path d="M34.06 35.1587H20.8755V50.5406H34.06V35.1587Z" fill="#FDB924"/>
<path d="M27.468 37.4663C25.9298 37.4663 24.7212 38.6749 24.7212 40.2131C24.7212 41.4217 25.4903 42.4105 26.4791 42.7401V43.8388L26.9186 44.2783V44.6079L26.4791 45.0474V45.377L26.9186 45.8165V46.1461L26.4791 46.5856V47.3547L27.468 47.904L28.4568 47.3547V42.85C29.4456 42.4105 30.2147 41.4217 30.2147 40.323C30.2147 38.7848 29.0062 37.4663 27.468 37.4663ZM27.7976 47.0251C27.7976 47.1349 27.6877 47.1349 27.6877 47.1349C27.5778 47.1349 27.5778 47.0251 27.5778 47.0251V42.9599C27.6877 42.9599 27.7976 42.9599 27.9074 42.9599V47.0251H27.7976ZM27.468 39.7736C27.1384 39.7736 26.8087 39.444 26.8087 39.1144C26.8087 38.7848 27.1384 38.4551 27.468 38.4551C27.7976 38.4551 28.1272 38.7848 28.1272 39.1144C28.1272 39.444 27.7976 39.7736 27.468 39.7736Z" fill="white"/>
</svg>
