<svg width="25" height="25" viewBox="0 0 25 25" fill="none" xmlns="http://www.w3.org/2000/svg">
<path d="M17.5 2.18555H7.5C4.73858 2.18555 2.5 4.42412 2.5 7.18555V17.1855C2.5 19.947 4.73858 22.1855 7.5 22.1855H17.5C20.2614 22.1855 22.5 19.947 22.5 17.1855V7.18555C22.5 4.42412 20.2614 2.18555 17.5 2.18555Z" stroke="#00A88E" stroke-width="2" stroke-linecap="round" stroke-linejoin="round"/>
<path d="M16.5002 11.5556C16.6236 12.3879 16.4815 13.2378 16.094 13.9846C15.7065 14.7314 15.0933 15.337 14.3418 15.7153C13.5903 16.0935 12.7386 16.2252 11.908 16.0915C11.0773 15.9579 10.31 15.5657 9.71503 14.9708C9.12011 14.3758 8.72793 13.6085 8.59426 12.7778C8.4606 11.9472 8.59226 11.0955 8.97052 10.344C9.34878 9.59246 9.95438 8.97934 10.7012 8.59185C11.448 8.20435 12.2979 8.06219 13.1302 8.1856C13.9791 8.31149 14.765 8.70707 15.3719 9.31391C15.9787 9.92075 16.3743 10.7067 16.5002 11.5556Z" stroke="#00A88E" stroke-width="2" stroke-linecap="round" stroke-linejoin="round"/>
<path d="M18 6.68555H18.01" stroke="#00A88E" stroke-width="2" stroke-linecap="round" stroke-linejoin="round"/>
</svg>
