<svg width="25" height="25" viewBox="0 0 25 25" fill="none" xmlns="http://www.w3.org/2000/svg">
<path d="M23.5 3.18559C22.5424 3.86107 21.4821 4.3777 20.36 4.71559C19.7577 4.0231 18.9573 3.53228 18.067 3.30952C17.1767 3.08675 16.2395 3.14279 15.3821 3.47005C14.5247 3.7973 13.7884 4.37999 13.273 5.13931C12.7575 5.89862 12.4877 6.79793 12.5 7.71559V8.71559C10.7426 8.76116 9.00127 8.37141 7.43101 7.58104C5.86074 6.79067 4.51032 5.62423 3.5 4.18559C3.5 4.18559 -0.5 13.1856 8.5 17.1856C6.44053 18.5836 3.98716 19.2845 1.5 19.1856C10.5 24.1856 21.5 19.1856 21.5 7.68559C21.4991 7.40705 21.4723 7.12919 21.42 6.85559C22.4406 5.84909 23.1608 4.57831 23.5 3.18559Z" fill="#00A88E"/>
</svg>
