<svg width="25" height="25" viewBox="0 0 25 25" fill="none" xmlns="http://www.w3.org/2000/svg">
<path d="M23.0401 6.60555C22.9213 6.13096 22.6794 5.69612 22.3387 5.34495C21.9981 4.99379 21.5708 4.73873 21.1001 4.60555C19.3801 4.18555 12.5001 4.18555 12.5001 4.18555C12.5001 4.18555 5.62008 4.18555 3.90008 4.64555C3.42933 4.77873 3.00206 5.03379 2.66143 5.38495C2.3208 5.73612 2.07887 6.17096 1.96008 6.64555C1.6453 8.3911 1.49132 10.1619 1.50008 11.9355C1.48886 13.7226 1.64285 15.5068 1.96008 17.2655C2.09104 17.7254 2.33839 18.1437 2.67823 18.48C3.01806 18.8164 3.4389 19.0594 3.90008 19.1855C5.62008 19.6455 12.5001 19.6455 12.5001 19.6455C12.5001 19.6455 19.3801 19.6455 21.1001 19.1855C21.5708 19.0524 21.9981 18.7973 22.3387 18.4461C22.6794 18.095 22.9213 17.6601 23.0401 17.1855C23.3524 15.4531 23.5064 13.6959 23.5001 11.9355C23.5113 10.1485 23.3573 8.36425 23.0401 6.60555Z" fill="#00A88E"/>
<path d="M10.25 15.2055L16 11.9355L10.25 8.66553V15.2055Z" fill="white"/>
</svg>
